<svg width="2500" height="1510" viewBox="0 0 2500 1510" fill="none" xmlns="http://www.w3.org/2000/svg">
<g clip-path="url(#clip0_1_39)">
<path d="M589.893 394.255H1061.42V431.736H633.115V713.801H1035.88V751.277H633.115V1060.96H1066.33V1098.44H589.893V394.255ZM1103.66 394.255H1153.76L1375.77 703.938L1602.69 394.25L1911.33 0.891113L1404.25 736.487L1665.56 1098.44H1613.49L1375.77 769.031L1137.06 1098.44H1085.98L1349.24 736.482L1103.66 394.255ZM1684.22 431.736V394.25H2221.56V431.731H1974.01V1098.43H1930.79V431.736H1684.22ZM0 394.25H54.0283L799.048 1509.11L491.172 1098.43L45.1855 447.512L43.2227 1098.44H0L0 394.25ZM2217.21 1049.64C2208.37 1049.64 2201.75 1042.81 2201.75 1033.96C2201.75 1025.12 2208.37 1018.27 2217.21 1018.27C2226.14 1018.27 2232.66 1025.11 2232.66 1033.96C2232.66 1042.8 2226.14 1049.64 2217.21 1049.64ZM2259.68 1008.38H2282.81C2283.12 1020.91 2292.27 1029.33 2305.72 1029.33C2320.76 1029.33 2329.27 1020.28 2329.27 1003.33V895.955H2352.82V1003.43C2352.82 1033.96 2335.16 1051.54 2305.93 1051.54C2278.49 1051.54 2259.68 1034.48 2259.68 1008.38V1008.38ZM2383.62 1007.01H2406.96C2408.96 1021.43 2423.05 1030.59 2443.34 1030.59C2462.26 1030.59 2476.14 1020.8 2476.14 1007.33C2476.14 995.749 2467.3 988.801 2447.23 984.065L2427.67 979.329C2400.23 972.903 2387.72 959.641 2387.72 937.327C2387.72 910.276 2409.8 892.273 2442.91 892.273C2473.72 892.273 2496.22 910.271 2497.58 935.852H2474.66C2472.46 921.853 2460.26 913.113 2442.6 913.113C2423.99 913.113 2411.59 922.063 2411.59 935.745C2411.59 946.584 2419.58 952.8 2439.34 957.429L2456.05 961.536C2487.17 968.801 2500 981.433 2500 1004.27C2500 1033.33 2477.5 1051.54 2441.55 1051.54C2407.91 1051.54 2385.3 1034.17 2383.62 1007.01V1007.01Z" fill="#E2E8F0"/>
</g>
<defs>
<clipPath id="clip0_1_39">
<rect width="2500" height="1509" fill="white" transform="translate(0 0.5)"/>
</clipPath>
</defs>
</svg>
