<svg width="2500" height="503" viewBox="0 0 2500 503" fill="none" xmlns="http://www.w3.org/2000/svg">
<g clip-path="url(#clip0_1_13)">
<path d="M1863.87 178.218V494.712H1761.91V128.655L1863.87 178.218Z" fill="#E2E8F0"/>
<path d="M420.886 435.944L497.354 502.5L819.512 334.695L786.234 254.686L420.886 435.944ZM1761.91 232.029L2021.06 97.5014L1977.16 21.7412L1761.91 128.655V232.029Z" fill="#E2E8F0"/>
<path d="M1032.63 153.437V494.712H934.922V8.28845L1032.63 153.437ZM420.886 435.944L497.354 502.5L644.626 134.319L597.188 8.28845L420.886 435.944Z" fill="#E2E8F0"/>
<path d="M597.188 8.28845H697.729L883.944 494.712H780.57L597.188 8.28845ZM1047.5 8.28845L1262.04 340.359V494.712L934.922 8.28845H1047.5ZM1446.13 8.28845H1547.38V494.712H1446.13V8.28845ZM1761.91 97.5014H1606.14V8.28845H1969.37L2021.06 97.5014H1863.87H1761.91Z" fill="#E2E8F0"/>
<path d="M2320.56 309.913V494.712H2220.01V309.913" fill="#E2E8F0"/>
<path d="M2389.94 8.28845L2220.01 309.913H2320.56L2496.86 8.28845H2389.94Z" fill="#E2E8F0"/>
<path d="M2220.01 309.913L2044.42 8.28845H2154.87L2273.12 215.036L2220.01 309.913Z" fill="#E2E8F0"/>
<path d="M43.5008 64.9316C43.5008 132.195 85.2751 172.554 168.824 193.795L257.329 214.328C336.629 232.737 384.776 278.052 384.776 351.688C385.484 383.549 374.863 414.703 355.746 440.193C355.746 366.556 317.512 326.906 226.175 302.833L139.086 283.008C68.9902 267.431 15.1792 229.905 15.1792 149.896C15.1792 119.451 25.0918 89.005 43.5008 64.9316Z" fill="#E2E8F0"/>
<path d="M1262.04 315.578V8.28845H1359.75V494.712H1262.04V315.578Z" fill="#E2E8F0"/>
<path d="M301.227 333.279C338.753 357.352 355.746 391.338 355.746 440.193C323.884 480.551 269.365 502.5 204.934 502.5C96.6037 502.5 19.4274 448.689 3.14246 355.936H107.224C120.677 398.418 156.079 418.243 204.226 418.243C261.577 418.951 300.519 387.798 301.227 333.279ZM98.0197 164.765C62.6178 143.524 42.0846 105.29 43.5007 64.2236C73.9464 24.5733 126.341 0.5 190.065 0.5C301.227 0.5 364.951 59.2673 381.235 141.4H280.694C269.365 108.83 241.752 83.3406 191.481 83.3406C136.962 84.0487 100.144 115.202 98.0197 164.765Z" fill="#E2E8F0"/>
</g>
<defs>
<clipPath id="clip0_1_13">
<rect width="2500" height="502" fill="white" transform="translate(0 0.5)"/>
</clipPath>
</defs>
</svg>
