<svg width="2500" height="309" viewBox="0 0 2500 309" fill="none" xmlns="http://www.w3.org/2000/svg">
<g clip-path="url(#clip0_1_32)">
<path d="M775.707 130.289H730.718V216.992C730.718 240.111 745.974 239.737 775.707 238.301V273.338C715.493 280.577 691.532 263.947 691.532 216.992V130.289H658.148V92.6941H691.532V44.1791L730.718 32.6354V92.6941H775.707V130.289ZM947.241 92.6941H986.428V273.338H947.241V247.318C933.451 266.475 912.017 278.049 883.72 278.049C834.393 278.049 793.397 236.492 793.397 183.016C793.397 129.197 834.393 88.0142 883.72 88.0142C912.017 88.0142 933.451 99.558 947.241 118.34V92.6941ZM889.897 240.829C922.563 240.829 947.241 216.618 947.241 183.016C947.241 149.415 922.563 125.204 889.897 125.204C857.231 125.204 832.584 149.415 832.584 183.016C832.584 216.618 857.231 240.829 889.897 240.829ZM1051.73 65.6131C1037.94 65.6131 1026.68 54.0381 1026.68 40.6848C1026.71 37.4089 1027.36 34.1641 1028.61 31.1378C1029.87 28.1118 1031.72 25.364 1034.04 23.0513C1036.36 20.7387 1039.12 18.9066 1042.15 17.6597C1045.18 16.4117 1048.45 15.7565 1051.73 15.7565C1055 15.7565 1058.25 16.4117 1061.31 17.6597C1064.33 18.9076 1067.08 20.7484 1069.42 23.0572C1071.73 25.3971 1073.57 28.1426 1074.85 31.1378C1076.09 34.1641 1076.75 37.4089 1076.75 40.6848C1076.75 54.0381 1065.52 65.6131 1051.73 65.6131ZM1032.13 273.338V92.6941H1071.32V273.338H1032.13ZM1116.69 273.338V9.61023H1155.87V273.338H1116.69ZM1410.21 92.6941H1451.58L1394.61 273.338H1356.14L1318.42 151.598L1280.33 273.338H1241.86L1184.89 92.6941H1226.26L1261.45 217.336L1299.54 92.6941H1336.92L1374.64 217.336L1410.21 92.6941ZM1500.19 65.6131C1486.4 65.6131 1475.17 54.0381 1475.17 40.6848C1475.17 37.4089 1475.82 34.1641 1477.07 31.1378C1478.35 28.1426 1480.19 25.3971 1482.5 23.0572C1484.84 20.7484 1487.58 18.9076 1490.61 17.6597C1493.67 16.4117 1496.91 15.7565 1500.19 15.7565C1506.82 15.7581 1513.18 18.3826 1517.88 23.0572C1520.22 25.3971 1522.06 28.1426 1523.31 31.1378C1524.59 34.1641 1525.24 37.4089 1525.24 40.6848C1525.24 54.0381 1513.98 65.6131 1500.19 65.6131ZM1480.59 273.338V92.6941H1519.78V273.338H1480.59ZM1730.25 162.425V273.338H1691.07V166.418C1691.07 138.932 1675.09 124.486 1650.41 124.486C1624.64 124.486 1604.33 139.68 1604.33 176.527V273.338H1565.14V92.6941H1604.33V115.813C1616.31 97.0308 1635.9 88.0142 1660.58 88.0142C1701.2 88.0142 1730.25 115.47 1730.25 162.425ZM1916.01 20.4364H1955.2V273.338H1916.01V247.318C1902.22 266.475 1880.82 278.049 1852.52 278.049C1803.16 278.049 1762.17 236.492 1762.17 183.016C1762.17 129.197 1803.16 88.0142 1852.52 88.0142C1880.82 88.0142 1902.22 99.558 1916.01 118.34V20.4364ZM1858.7 240.829C1891.33 240.829 1916.01 216.618 1916.01 183.016C1916.01 149.415 1891.33 125.204 1858.7 125.204C1826.03 125.204 1801.36 149.415 1801.36 183.016C1801.36 216.618 1826.03 240.829 1858.7 240.829ZM1990.77 183.016C1990.77 129.197 2031.76 88.0142 2086.55 88.0142C2122.12 88.0142 2152.94 106.422 2167.45 134.626L2133.72 154.126C2125.73 137.153 2107.95 126.296 2086.17 126.296C2054.26 126.296 2029.95 150.507 2029.95 183.016C2029.95 215.526 2054.26 239.737 2086.17 239.737C2107.95 239.737 2125.73 228.536 2134.44 211.938L2168.2 231.063C2152.94 259.611 2122.12 278.049 2086.55 278.049C2031.76 278.049 1990.77 236.492 1990.77 183.016ZM2330.37 222.39C2330.37 258.519 2298.8 278.049 2259.61 278.049C2223.33 278.049 2197.21 261.763 2185.61 235.774L2219.33 216.244C2225.17 232.53 2239.67 242.264 2259.61 242.264C2277.05 242.264 2290.47 236.492 2290.47 222.047C2290.47 189.88 2192.88 207.945 2192.88 143.268C2192.88 109.323 2222.27 88.0142 2259.27 88.0142C2289 88.0142 2313.68 101.742 2326.38 125.578L2293.37 144.017C2286.85 129.915 2274.15 123.425 2259.27 123.425C2245.1 123.425 2232.78 129.541 2232.78 142.551C2232.78 175.435 2330.37 155.561 2330.37 222.39ZM2497.66 222.39C2497.66 258.519 2466.09 278.049 2426.9 278.049C2390.62 278.049 2364.47 261.763 2352.87 235.774L2386.62 216.244C2392.43 232.53 2406.93 242.264 2426.9 242.264C2444.31 242.264 2457.73 236.492 2457.73 222.047C2457.73 189.88 2360.14 207.945 2360.14 143.268C2360.14 109.323 2389.53 88.0142 2426.53 88.0142C2456.29 88.0142 2480.97 101.742 2493.67 125.578L2460.63 144.017C2454.11 129.915 2441.41 123.425 2426.53 123.425C2412.39 123.425 2400.04 129.541 2400.04 142.551C2400.04 175.435 2497.66 155.561 2497.66 222.39Z" fill="#E2E8F0"/>
<path d="M260.138 0.5C191.406 0.5 148.413 34.7257 131.222 103.177C157.024 68.9514 187.1 56.0972 221.482 64.6459C241.075 69.5442 255.084 83.7087 270.621 99.4019C295.893 124.923 325.158 154.5 389.054 154.5C457.786 154.5 500.747 120.274 517.938 51.8229C492.168 86.0486 462.092 98.8715 427.71 90.3229C408.117 85.4558 394.077 71.2601 378.571 55.5981C353.299 30.0458 324.034 0.5 260.138 0.5ZM131.222 154.5C62.4902 154.5 19.5287 188.726 2.33789 257.177C28.1086 222.951 58.1847 210.128 92.5664 218.677C112.191 223.544 126.199 237.74 141.705 253.402C166.977 278.954 196.242 308.5 260.138 308.5C328.901 308.5 371.863 274.274 389.054 205.823C363.252 240.049 333.176 252.903 298.825 244.354C279.201 239.456 265.192 225.291 249.655 209.598C224.384 184.077 195.119 154.5 131.222 154.5Z" fill="#E2E8F0"/>
</g>
<defs>
<clipPath id="clip0_1_32">
<rect width="2500" height="308" fill="white" transform="translate(0 0.5)"/>
</clipPath>
</defs>
</svg>
